<?xml version="1.0" standalone="no"?>
<!DOCTYPE svg PUBLIC "-//W3C//DTD SVG 20010904//EN"
 "http://www.w3.org/TR/2001/REC-SVG-20010904/DTD/svg10.dtd">
<svg version="1.0" xmlns="http://www.w3.org/2000/svg"
 width="768.000000pt" height="768.000000pt" viewBox="0 0 768.000000 768.000000"
 preserveAspectRatio="xMidYMid meet">

<g transform="translate(0.000000,768.000000) scale(0.100000,-0.100000)"
fill="#000000" stroke="none">
<path d="M0 3840 l0 -3840 3840 0 3840 0 0 3840 0 3840 -3840 0 -3840 0 0
-3840z m3852 2400 c150 0 227 -3 223 -10 -4 -6 -106 -10 -273 -10 -282 0 -376
6 -365 23 4 6 39 7 96 3 50 -3 193 -6 319 -6z m273 -150 c-4 -6 -135 -10 -360
-10 -225 0 -356 4 -360 10 -4 7 118 10 360 10 242 0 364 -3 360 -10z m-135
-168 c0 -16 -3 -64 -6 -106 -10 -108 -29 -95 -29 20 l0 89 -185 0 -185 0 -3
-92 c-2 -74 -6 -93 -17 -93 -12 0 -15 20 -15 105 l0 105 220 0 220 0 0 -28z
m-580 -193 c0 -98 0 -99 -24 -99 -73 0 -308 -98 -456 -189 -260 -162 -506
-423 -627 -666 -49 -97 -106 -246 -129 -338 -10 -42 -22 -67 -30 -67 -19 0
-18 12 15 120 42 135 53 165 106 271 83 167 167 282 320 435 211 212 409 337
676 428 68 23 124 48 123 54 -1 7 -2 39 -2 72 l-2 60 -32 -7 c-71 -13 -248
-76 -343 -122 -299 -144 -609 -417 -791 -696 -86 -133 -159 -282 -204 -421
-22 -68 -40 -130 -40 -139 0 -13 -27 -15 -205 -15 l-205 0 0 -70 0 -70 205 0
c175 0 205 -2 205 -15 0 -12 -14 -14 -77 -10 -43 2 -142 4 -220 4 l-143 1 0
90 0 90 204 0 204 0 37 117 c43 131 125 305 208 439 170 274 504 572 801 713
149 72 392 149 419 134 4 -2 7 -49 7 -104z m898 75 c603 -156 1170 -705 1326
-1284 l23 -85 166 -3 167 -2 0 -90 0 -90 -115 0 c-70 0 -115 4 -115 10 0 6 40
10 100 10 l100 0 0 70 0 70 -165 0 -165 0 -5 28 c-44 212 -142 422 -293 627
-81 109 -266 298 -377 387 -92 74 -276 185 -394 237 -88 40 -279 100 -363 115
l-38 7 0 -80 0 -79 41 -7 c75 -13 222 -65 335 -119 377 -181 707 -534 864
-926 34 -84 69 -224 59 -234 -13 -15 -17 -7 -43 95 -124 489 -613 987 -1108
1128 -57 17 -120 33 -140 36 l-38 7 0 105 0 105 43 -7 c23 -4 84 -18 135 -31z
m-408 -241 c1 -10 2 -108 3 -218 l2 -200 63 -3 c44 -2 62 -7 62 -16 0 -11 -16
-13 -67 -9 -38 2 -73 6 -78 8 -7 2 -12 77 -14 211 -1 115 -3 210 -4 210 -1 1
-42 3 -92 5 l-90 4 -3 -217 c-2 -185 -5 -218 -17 -218 -13 0 -15 34 -15 230
l0 230 125 0 c112 0 125 -2 125 -17z m-670 -352 c0 -5 -16 -18 -35 -30 -19
-11 -35 -28 -35 -37 0 -14 -3 -14 -15 -4 -18 15 -7 33 40 62 33 20 45 22 45 9z
m1750 -57 c0 -4 -139 -179 -182 -229 -5 -5 -23 5 -46 26 -20 20 -53 48 -74 63
l-36 27 -25 -33 c-40 -54 -59 -87 -55 -96 1 -5 44 -43 93 -84 50 -41 119 -110
155 -152 l64 -78 41 44 c22 24 60 66 84 93 l43 50 10 -25 c5 -14 23 -40 41
-58 24 -25 28 -35 19 -44 -6 -6 -13 -10 -15 -7 -39 55 -60 79 -71 79 -7 0 -27
-19 -44 -42 -45 -61 -98 -118 -108 -118 -5 0 -22 18 -38 40 -34 45 -198 207
-266 262 l-45 36 70 102 c38 56 75 105 83 107 24 10 26 -7 4 -30 -12 -13 -22
-26 -22 -29 0 -8 117 -98 128 -98 5 0 22 17 38 38 75 101 154 180 154 156z
m-1540 -41 c0 -5 3 -18 6 -30 5 -17 2 -23 -10 -23 -9 0 -16 7 -16 15 0 19 -1
19 -72 -1 -57 -16 -59 -18 -53 -45 5 -20 2 -30 -7 -33 -139 -41 -249 -119
-406 -290 -35 -37 -66 -65 -69 -62 -8 8 69 106 130 163 99 94 267 203 311 203
12 0 14 7 10 29 -6 29 -5 30 72 54 87 27 104 31 104 20z m938 -58 c34 -15 62
-31 62 -35 0 -5 -17 -48 -37 -96 l-37 -88 29 -20 c94 -68 175 -138 170 -147
-4 -5 -30 10 -58 35 -29 24 -78 60 -110 80 -66 42 -65 34 -12 150 l33 73 -64
31 c-35 18 -70 32 -77 32 -21 0 -40 17 -33 29 7 11 7 11 134 -44z m-1368 -9
c-8 -7 -53 -46 -99 -86 -46 -41 -115 -110 -153 -155 -65 -77 -71 -82 -94 -71
-26 12 -30 26 -12 44 16 16 28 15 28 -2 0 -7 67 54 150 135 103 103 157 149
172 149 19 0 20 -2 8 -14z m686 -103 c-4 -5 -56 -18 -114 -29 -213 -42 -362
-122 -515 -276 -48 -48 -89 -88 -92 -88 -34 0 129 170 224 233 119 80 218 123
352 152 70 15 157 19 145 8z m411 -38 c110 -29 163 -50 163 -64 0 -6 -22 -3
-52 9 -55 20 -146 43 -210 54 -41 7 -52 26 -15 26 12 0 63 -11 114 -25z m-34
-214 c121 -31 337 -141 337 -172 0 -6 -19 1 -42 15 -121 74 -327 156 -393 156
-14 0 -25 5 -25 10 0 15 39 12 123 -9z m-503 -26 l0 -35 56 0 55 0 -3 -180
c-2 -143 0 -181 10 -185 8 -3 355 -5 773 -5 499 0 759 -3 759 -10 0 -7 -478
-10 -1415 -10 -930 0 -1415 3 -1415 10 0 6 221 11 628 12 l627 3 3 173 2 172
-49 0 c-46 0 -49 1 -55 31 -9 47 -7 59 9 59 10 0 15 -11 15 -35z m456 -175
c88 -21 134 -39 134 -52 0 -11 -4 -11 -79 11 -36 11 -94 25 -128 32 -64 12
-85 29 -35 29 15 0 63 -9 108 -20z m1254 -240 c0 -11 -7 -20 -15 -20 -15 0
-21 21 -8 33 12 13 23 7 23 -13z m-2670 -306 c67 -168 78 -188 105 -200 27
-12 22 -13 -65 -13 -76 0 -89 3 -67 11 32 11 32 15 10 85 l-17 53 -76 0 -76 0
-17 -54 c-18 -57 -15 -82 11 -89 10 -3 -93 -5 -228 -5 -169 0 -237 3 -219 9
15 6 30 20 33 32 8 32 7 310 -2 322 -4 6 -18 16 -32 22 -21 10 -10 12 70 12
75 -1 89 -3 67 -11 -15 -5 -30 -20 -33 -33 -10 -41 0 -303 13 -316 17 -17 96
-23 138 -9 27 9 41 22 53 49 l17 36 3 -52 c3 -58 18 -68 49 -34 10 11 45 84
77 163 73 175 95 220 104 214 5 -3 41 -89 82 -192z m417 160 c22 -17 29 -30
31 -66 3 -40 -1 -48 -28 -71 -35 -30 -37 -37 -11 -37 29 0 78 -46 84 -77 3
-16 -1 -42 -8 -59 -20 -50 -71 -64 -223 -64 -118 1 -125 2 -94 15 l32 14 0
169 c0 177 -2 184 -45 195 -11 3 37 5 107 4 111 -2 130 -5 155 -23z m251 14
c-16 -5 -28 -14 -28 -19 0 -5 21 -51 46 -101 l46 -92 25 40 c39 63 73 132 73
149 0 8 -6 15 -14 15 -8 0 -18 5 -21 10 -4 6 19 10 62 10 61 0 65 -2 43 -13
-37 -19 -159 -223 -159 -268 -1 -67 9 -97 38 -108 20 -7 4 -10 -69 -10 -90 0
-93 0 -62 14 31 14 32 16 32 76 0 55 -5 71 -56 165 -30 57 -67 112 -82 123
l-27 20 90 0 c72 0 85 -3 63 -11z m557 -2 c40 -17 55 -42 55 -93 0 -48 -19
-76 -62 -93 -18 -8 -35 -15 -37 -16 -7 -6 124 -148 154 -166 l30 -18 -56 0
-57 0 -73 90 c-40 50 -78 90 -86 90 -10 0 -13 -19 -13 -75 l0 -76 33 -14 c30
-14 27 -14 -63 -14 -73 0 -89 3 -69 10 34 13 39 38 39 189 0 151 -5 176 -39
189 -19 7 4 10 92 10 80 1 128 -3 152 -13z m339 3 c-41 -12 -44 -24 -44 -189
0 -165 3 -177 44 -189 24 -7 8 -9 -69 -10 -95 0 -98 1 -67 14 l32 14 0 171 0
171 -32 14 c-31 13 -28 14 67 14 77 -1 93 -3 69 -10z m321 -145 l125 -156 0
133 c0 74 -4 139 -8 146 -4 7 -19 16 -32 22 -20 8 -11 10 45 10 68 0 69 0 43
-15 l-28 -15 0 -189 c0 -146 -3 -190 -12 -190 -7 1 -74 78 -148 171 l-135 171
-3 -136 c-3 -137 5 -176 33 -176 7 0 17 -4 20 -10 4 -6 -19 -10 -62 -10 -66 1
-67 1 -40 16 l27 15 0 170 0 170 -32 14 -33 14 57 1 58 0 125 -156z m655 111
c0 -52 -7 -57 -21 -15 -12 33 -45 44 -114 38 l-40 -3 -3 -173 -2 -173 32 -14
c31 -13 28 -14 -67 -14 -77 1 -93 3 -69 10 24 7 33 16 38 40 8 40 8 292 0 313
-4 11 -19 16 -53 16 -69 0 -92 -10 -107 -44 l-13 -31 -1 48 0 47 210 0 210 0
0 -45z m198 33 c-27 -9 -28 -12 -28 -89 l0 -79 105 0 105 0 0 75 0 76 -32 14
c-31 14 -28 14 62 14 79 -1 90 -3 68 -12 l-28 -11 0 -173 0 -173 25 -10 c14
-5 25 -12 25 -15 0 -3 -42 -5 -92 -4 -89 1 -92 1 -60 15 l32 14 0 85 0 85
-105 0 -106 0 3 -87 c3 -82 5 -88 28 -100 22 -11 13 -13 -70 -12 -91 1 -94 1
-62 15 l32 14 0 171 0 170 -32 14 c-31 14 -28 14 62 14 76 0 89 -3 68 -11z
m792 -158 c0 -16 -141 -230 -152 -230 -16 0 -5 21 67 132 66 100 85 122 85 98z
m-4584 -217 c-4 -4 -11 -1 -16 7 -16 25 -11 35 7 17 9 -9 13 -20 9 -24z m4224
-28 c0 -8 -7 -15 -15 -15 -16 0 -20 12 -8 23 11 12 23 8 23 -8z m210 -205 c0
-7 -144 -10 -412 -10 -227 0 -915 -3 -1528 -6 -1189 -7 -2503 3 -2494 17 8 13
4434 12 4434 -1z m-4030 -282 c90 -281 260 -564 470 -782 271 -280 565 -455
969 -574 18 -5 27 -18 36 -52 6 -25 15 -56 19 -69 6 -17 5 -22 -5 -19 -16 5
-26 24 -39 73 l-10 40 -133 43 c-610 195 -1120 702 -1327 1318 -42 125 -47
148 -29 142 7 -2 28 -56 49 -120z m3485 20 c-39 -120 -142 -326 -223 -448
-217 -324 -534 -572 -887 -693 -135 -46 -155 -50 -155 -34 0 8 22 19 53 26
160 41 403 162 556 278 126 95 297 275 388 406 98 141 189 316 232 447 18 52
34 101 37 109 3 10 8 11 15 4 8 -8 4 -35 -16 -95z m225 88 c0 -8 -21 -74 -46
-148 -103 -299 -262 -554 -484 -777 -273 -274 -586 -448 -960 -536 -41 -10
-80 -22 -86 -26 -6 -5 -16 -26 -22 -48 -11 -36 -37 -69 -47 -60 -2 3 8 34 22
71 l26 66 85 17 c354 70 721 276 983 553 142 150 276 336 356 497 37 74 116
282 134 353 7 29 18 52 26 52 7 0 13 -6 13 -14z m-3135 -51 c26 -25 31 -40 16
-49 -5 -3 -16 5 -25 19 -19 29 -25 30 -51 11 -17 -13 -18 -17 -6 -40 18 -33 7
-45 -19 -21 -35 31 -20 80 30 98 25 9 30 8 55 -18z m2509 7 c5 -3 -5 -11 -22
-18 -20 -8 -34 -23 -38 -38 -3 -14 -12 -26 -20 -26 -20 0 -17 15 11 60 24 38
34 41 69 22z m-1364 -162 c0 -136 -2 -160 -15 -160 -13 0 -15 23 -15 150 l0
150 -195 0 c-123 0 -195 4 -195 10 0 6 77 10 210 10 l210 0 0 -160z m688 145
c-2 -6 -79 -10 -207 -10 l-204 0 -9 -25 c-5 -14 -8 -78 -6 -143 3 -99 1 -117
-12 -117 -13 0 -15 23 -12 155 l3 155 225 -2 c143 -2 223 -7 222 -13z m262
-34 c0 -17 -115 -155 -171 -205 -119 -107 -261 -185 -408 -223 -81 -21 -119
-25 -236 -25 -177 0 -289 26 -450 107 -144 72 -366 239 -351 264 4 7 34 -13
79 -52 230 -201 466 -297 727 -297 185 0 341 47 496 149 99 65 208 169 256
243 28 43 58 63 58 39z m-2443 -33 c5 -64 114 -279 221 -433 78 -112 209 -264
298 -344 141 -126 363 -265 538 -336 86 -34 117 -55 85 -55 -26 0 -231 94
-326 149 -142 83 -241 158 -362 275 -176 172 -321 370 -412 566 -27 58 -58
123 -69 144 -15 30 -17 42 -8 53 16 20 32 11 35 -19z m2543 -160 c0 -7 -26
-38 -57 -70 l-56 -57 26 -38 c49 -72 73 -97 89 -90 20 7 167 174 181 205 10
23 37 31 37 11 0 -25 -211 -259 -233 -259 -3 0 -28 32 -57 70 -29 39 -56 70
-61 70 -5 0 -45 -27 -88 -59 -216 -160 -405 -221 -683 -221 -242 0 -409 41
-618 152 -63 34 -133 71 -155 82 -57 30 -172 30 -212 0 -65 -48 -94 -134 -73
-215 13 -49 85 -129 136 -154 59 -28 96 -29 153 -4 57 24 71 19 71 -28 0 -30
-20 -40 -27 -14 -3 12 -6 21 -8 21 -1 0 -22 -7 -45 -15 -78 -27 -176 9 -252
93 -94 105 -90 234 10 324 73 66 177 65 295 -2 152 -86 296 -151 392 -175 283
-72 576 -53 795 51 148 70 314 197 385 293 29 40 55 53 55 29z m-496 -607 c20
-22 26 -72 10 -78 -6 -2 -15 11 -20 29 -10 32 -12 33 -58 32 -51 0 -66 -12
-66 -51 0 -22 -4 -23 -75 -23 l-75 0 -2 -212 c-2 -160 -6 -212 -16 -216 -10
-3 -12 44 -10 225 l3 228 71 3 c70 3 72 4 77 31 5 23 13 30 49 38 66 16 93 15
112 -6z m-656 -238 l2 -190 38 -7 c20 -3 56 -6 80 -6 23 0 42 -4 42 -10 0 -6
-38 -10 -95 -10 l-95 0 0 211 c0 164 3 210 13 207 9 -4 13 -54 15 -195z m305
-640 c-90 -2 -236 -2 -325 0 -90 1 -17 3 162 3 179 0 252 -2 163 -3z"/>
<path d="M2468 3983 l-35 -78 33 -3 c19 -2 49 -2 67 0 l33 3 -31 78 -32 78
-35 -78z"/>
<path d="M2880 4030 c0 -100 2 -102 68 -79 22 7 34 20 42 45 22 67 -17 124
-85 124 -25 0 -25 -1 -25 -90z"/>
<path d="M2880 3847 c0 -75 3 -88 19 -97 57 -30 131 17 131 84 0 53 -33 85
-97 93 l-53 6 0 -86z"/>
<path d="M3697 4113 c-4 -3 -7 -48 -7 -100 0 -82 2 -93 18 -93 37 0 92 22 102
40 13 25 13 83 -1 114 -15 33 -92 60 -112 39z"/>
</g>
</svg>
